<?xml version="1.0" encoding="UTF-8"?><svg id="Layer_2" xmlns="http://www.w3.org/2000/svg" viewBox="0 0 274.97 404.82"><defs><style>.cls-1{fill:#fff;}</style></defs><g id="Layer_1-2"><path class="cls-1" d="M40.31,364.51C13.44,337.63,0,305.24,0,267.33s13.39-70.34,40.17-97.31c15.46-15.46,33.85-26.68,55.16-33.66,13.39-4.34,27.44-6.51,42.15-6.51h64.5c-.19,15.84-5.8,29.28-16.83,40.31-11.03,11.03-24.38,16.55-40.03,16.55h-7.64c-22.07,0-40.98,7.88-56.72,23.62-15.75,15.75-23.62,34.75-23.62,57s7.87,41.26,23.62,57c15.74,15.75,34.65,23.62,56.72,23.62s41.25-7.87,57-23.62c15.74-15.74,23.62-34.75,23.62-57V56.86c0-15.65,5.56-29.04,16.69-40.17,11.13-11.13,24.51-16.69,40.17-16.69v267.33c0,37.91-13.44,70.3-40.31,97.17s-59.27,40.31-97.17,40.31-70.3-13.44-97.17-40.31Z"/></g></svg>